<svg width="48" height="48" viewBox="0 0 48 48" fill="none" xmlns="http://www.w3.org/2000/svg">
<path fill-rule="evenodd" clip-rule="evenodd" d="M24 48C37.2548 48 48 37.2548 48 24C48 10.7452 37.2548 0 24 0C10.7452 0 0 10.7452 0 24C0 37.2548 10.7452 48 24 48ZM25.6469 12.487C24.4392 12.5207 23.1648 12.8114 22.2646 13.6667C21.5212 14.3544 21.1467 15.3552 21.0625 16.3557C21.0369 17.0712 21.0405 17.7887 21.0442 18.5059C21.0469 19.0437 21.0497 19.5814 21.0401 20.118C20.7095 20.1204 20.3778 20.1198 20.046 20.1191C19.6036 20.1181 19.1609 20.1172 18.72 20.1237C18.72 20.5519 18.7206 20.9807 18.7212 21.4099C18.7225 22.2696 18.7237 23.1309 18.72 23.9923C19.1609 23.9987 19.6036 23.9978 20.0461 23.9969C20.3779 23.9962 20.7095 23.9955 21.0401 23.9979C21.0475 25.705 21.0462 27.412 21.0448 29.119C21.0431 31.2527 21.0413 33.3864 21.0569 35.52C21.9642 35.5136 22.8696 35.5145 23.7753 35.5154C24.4546 35.5161 25.134 35.5168 25.8145 35.5144C25.8201 33.5939 25.8187 31.6751 25.8173 29.7562C25.8159 27.8372 25.8145 25.9182 25.8201 23.9979C26.2777 23.9955 26.7353 23.9962 27.1929 23.9969C27.8031 23.9978 28.4133 23.9987 29.0235 23.9923C29.2136 22.7064 29.3756 21.4092 29.465 20.1068C28.8613 20.104 28.2576 20.104 27.6538 20.104C27.05 20.104 26.4462 20.104 25.8425 20.1012C25.8425 19.8761 25.8422 19.6511 25.8419 19.426C25.8408 18.751 25.8397 18.0761 25.8481 17.401C25.9432 16.881 26.4797 16.484 26.9998 16.5177H29.4706C29.4762 15.1704 29.4762 13.8287 29.4706 12.4814C29.1521 12.4814 28.8335 12.4811 28.5149 12.4807C27.559 12.4797 26.6029 12.4786 25.6469 12.487Z" fill="white"/>
</svg>
