<svg width="221" height="78" viewBox="0 0 221 78" fill="none" xmlns="http://www.w3.org/2000/svg">
<g clip-path="url(#clip0_1_64)">
<path d="M90.0752 8.93165C89.983 9.40211 89.9934 9.80768 90.1063 10.1473C90.2182 10.488 90.4253 10.7476 90.7277 10.9281C91.0291 11.1085 91.3999 11.1988 91.8391 11.1988C92.1353 11.1988 92.4346 11.1582 92.736 11.0781C93.0374 10.998 93.3109 10.8632 93.5564 10.6726L93.3264 10.1169C93.1421 10.2568 92.9401 10.3643 92.7205 10.4394C92.5009 10.5144 92.2679 10.5519 92.0224 10.5519C91.5108 10.5519 91.1607 10.4089 90.9722 10.124C90.7826 9.83911 90.7443 9.42138 90.8572 8.87082L91.8629 3.94721H94.415L94.5372 3.30134H91.9945L92.3435 1.58984H91.577L91.227 3.30134H89.7376L89.6143 3.94721H91.0944L90.0742 8.93064L90.0752 8.93165Z" fill="white"/>
<path d="M97.2053 6.8754C97.4093 5.89494 97.8184 5.15681 98.4326 4.661C99.0458 4.16519 99.807 3.91779 100.717 3.91779C101.628 3.91779 102.248 4.15809 102.611 4.63869C102.973 5.11929 103.069 5.77429 102.895 6.60469L101.975 11.1379H102.741L103.661 6.60469C103.804 5.92435 103.792 5.3312 103.623 4.82627C103.454 4.32134 103.142 3.93098 102.687 3.65519C102.233 3.38042 101.642 3.24252 100.916 3.24252C100.119 3.24252 99.4031 3.41286 98.7692 3.75252C98.3249 3.9908 97.9479 4.3335 97.6289 4.76847L98.6004 0H97.8339L95.5646 11.1379H96.3311L97.2053 6.87439V6.8754Z" fill="white"/>
<path d="M108.338 1.39611C108.532 1.39611 108.696 1.33325 108.829 1.20854C108.962 1.08382 109.029 0.925653 109.029 0.736049C109.029 0.585989 108.973 0.456207 108.86 0.345689C108.748 0.235172 108.605 0.18042 108.432 0.18042C108.237 0.18042 108.076 0.245311 107.949 0.376107C107.822 0.505889 107.757 0.661019 107.757 0.841497C107.757 0.991557 107.813 1.12134 107.926 1.23186C108.039 1.34237 108.177 1.39713 108.341 1.39713L108.338 1.39611Z" fill="white"/>
<path d="M108.247 3.30225H107.48L105.885 11.1378H106.652L108.247 3.30225Z" fill="white"/>
<path d="M114.065 10.1028C113.61 10.3928 112.969 10.5378 112.141 10.5378C111.589 10.5378 111.064 10.4557 110.568 10.2904C110.072 10.1251 109.677 9.90309 109.38 9.62223L108.966 10.2083C109.273 10.4983 109.71 10.7365 110.277 10.9211C110.845 11.1066 111.446 11.1989 112.079 11.1989C112.774 11.1989 113.377 11.1066 113.889 10.9211C114.4 10.7365 114.798 10.4658 115.085 10.1109C115.371 9.75607 115.515 9.33327 115.515 8.84253C115.515 8.40249 115.405 8.06181 115.186 7.82151C114.966 7.58121 114.679 7.3987 114.327 7.27399C113.975 7.14928 113.599 7.0489 113.2 6.97387C112.801 6.89884 112.429 6.8157 112.081 6.72647C111.733 6.63623 111.447 6.50138 111.222 6.3209C110.997 6.14043 110.884 5.88086 110.884 5.54019C110.884 5.05046 111.109 4.65503 111.559 4.3539C112.008 4.05378 112.626 3.90372 113.414 3.90372C113.843 3.90372 114.265 3.96151 114.678 4.07608C115.092 4.19066 115.453 4.36404 115.759 4.5942L116.113 4.00916C115.827 3.76886 115.44 3.58129 114.955 3.44644C114.469 3.31159 113.976 3.24365 113.475 3.24365C112.8 3.24365 112.212 3.34099 111.711 3.53668C111.209 3.73236 110.821 4.00714 110.546 4.36201C110.269 4.71688 110.131 5.13563 110.131 5.61522C110.131 6.05526 110.241 6.401 110.461 6.65043C110.68 6.90087 110.967 7.08642 111.319 7.20606C111.672 7.32672 112.045 7.42608 112.439 7.50618C112.832 7.58628 113.205 7.67145 113.559 7.76169C113.912 7.85193 114.198 7.98171 114.417 8.15205C114.637 8.32239 114.747 8.57789 114.747 8.91756C114.747 9.41844 114.519 9.81285 114.064 10.1038L114.065 10.1028Z" fill="white"/>
<path d="M123.518 3.30225H122.752L121.157 11.1378H121.923L123.518 3.30225Z" fill="white"/>
<path d="M123.61 1.39611C123.804 1.39611 123.968 1.33325 124.101 1.20854C124.234 1.08382 124.301 0.925653 124.301 0.736049C124.301 0.585989 124.245 0.456207 124.132 0.345689C124.02 0.235172 123.877 0.18042 123.704 0.18042C123.509 0.18042 123.348 0.245311 123.221 0.376107C123.094 0.505889 123.029 0.661019 123.029 0.841497C123.029 0.991557 123.085 1.12134 123.198 1.23186C123.311 1.34237 123.449 1.39713 123.612 1.39713L123.61 1.39611Z" fill="white"/>
<path d="M129.338 10.1028C128.883 10.3928 128.241 10.5378 127.414 10.5378C126.862 10.5378 126.337 10.4557 125.841 10.2904C125.345 10.1251 124.95 9.90309 124.653 9.62223L124.239 10.2083C124.546 10.4983 124.983 10.7365 125.55 10.9211C126.118 11.1066 126.719 11.1989 127.353 11.1989C128.047 11.1989 128.65 11.1066 129.162 10.9211C129.673 10.7365 130.071 10.4658 130.358 10.1109C130.644 9.75607 130.787 9.33327 130.787 8.84253C130.787 8.40249 130.677 8.06181 130.458 7.82151C130.238 7.58121 129.951 7.3987 129.599 7.27399C129.246 7.14928 128.871 7.0489 128.472 6.97387C128.073 6.89884 127.701 6.8157 127.353 6.72647C127.004 6.63623 126.719 6.50138 126.494 6.3209C126.269 6.14043 126.156 5.88086 126.156 5.54019C126.156 5.05046 126.381 4.65503 126.83 4.3539C127.28 4.05378 127.898 3.90372 128.685 3.90372C129.115 3.90372 129.537 3.96151 129.95 4.07608C130.363 4.19066 130.725 4.36404 131.031 4.5942L131.385 4.00916C131.099 3.76886 130.712 3.58129 130.227 3.44644C129.741 3.31159 129.248 3.24365 128.747 3.24365C128.072 3.24365 127.484 3.34099 126.983 3.53668C126.481 3.73236 126.093 4.00714 125.818 4.36201C125.542 4.71688 125.403 5.13563 125.403 5.61522C125.403 6.05526 125.513 6.401 125.733 6.65043C125.952 6.90087 126.239 7.08642 126.591 7.20606C126.943 7.32672 127.317 7.42608 127.711 7.50618C128.104 7.58628 128.477 7.67145 128.831 7.76169C129.184 7.85193 129.47 7.98171 129.689 8.15205C129.909 8.32239 130.018 8.57789 130.018 8.91756C130.018 9.41844 129.791 9.81285 129.336 10.1038L129.338 10.1028Z" fill="white"/>
<path d="M95.1058 67.804H95.9323V65.2337C95.9323 64.7957 95.8536 64.4327 95.6952 64.1468C95.5377 63.8609 95.3181 63.647 95.0364 63.507C94.7557 63.3671 94.4305 63.2961 94.0639 63.2961C93.605 63.2961 93.2032 63.3996 92.8593 63.6074C92.6252 63.7484 92.4429 63.9238 92.3052 64.1265C92.1933 63.9156 92.0462 63.7413 91.8526 63.6115C91.5367 63.4006 91.1607 63.2961 90.7246 63.2961C90.329 63.2961 89.982 63.3773 89.6827 63.5405C89.4621 63.6612 89.285 63.8173 89.1493 64.0079V63.3387H88.358V67.804H89.1845V65.5034C89.1845 65.178 89.2415 64.9052 89.3564 64.6862C89.4714 64.4672 89.6319 64.3009 89.838 64.1894C90.0442 64.0779 90.2824 64.0211 90.5527 64.0211C90.9318 64.0211 91.2228 64.1306 91.4258 64.3496C91.6299 64.5686 91.7314 64.8941 91.7314 65.327V67.804H92.5579V65.5034C92.5579 65.178 92.6138 64.9052 92.7257 64.6862C92.8375 64.4672 92.997 64.3009 93.2032 64.1894C93.4093 64.0769 93.6506 64.0211 93.9261 64.0211C94.299 64.0211 94.589 64.1306 94.7951 64.3496C95.0012 64.5686 95.1048 64.8941 95.1048 65.327V67.804H95.1058Z" fill="white"/>
<path d="M100.288 67.2129V67.804H101.071V65.108C101.071 64.4956 100.902 64.0403 100.563 63.7432C100.224 63.4462 99.7428 63.2971 99.1172 63.2971C98.7558 63.2971 98.4098 63.3458 98.0805 63.4441C97.7511 63.5425 97.4683 63.6844 97.2332 63.87L97.5771 64.4763C97.7552 64.3303 97.9727 64.2137 98.2317 64.1265C98.4896 64.0393 98.7537 63.9957 99.023 63.9957C99.43 63.9957 99.7356 64.09 99.9396 64.2776C100.144 64.4662 100.245 64.7318 100.245 65.0735V65.2337H98.937C98.4834 65.2337 98.124 65.2925 97.8567 65.4111C97.5895 65.5288 97.3979 65.6859 97.2798 65.8826C97.1618 66.0793 97.1038 66.2983 97.1038 66.5396C97.1038 66.781 97.1721 67.0182 97.3099 67.218C97.4476 67.4177 97.6444 67.5738 97.8992 67.6854C98.154 67.7979 98.4513 67.8537 98.7899 67.8537C99.2084 67.8537 99.5564 67.7766 99.8319 67.6215C100.026 67.513 100.177 67.3751 100.288 67.2119V67.2129ZM99.7408 67.0284C99.5087 67.1632 99.2374 67.2301 98.9277 67.2301C98.618 67.2301 98.3653 67.1642 98.1871 67.0324C98.009 66.9006 97.9199 66.7252 97.9199 66.5062C97.9199 66.3156 97.9914 66.1523 98.1354 66.0175C98.2783 65.8826 98.5569 65.8157 98.9702 65.8157H100.244V66.4393C100.141 66.6978 99.9728 66.8945 99.7408 67.0294V67.0284Z" fill="white"/>
<path d="M103.395 64.0961V63.3387H102.604V67.804H103.43V65.5795C103.43 65.0908 103.56 64.7177 103.817 64.4591C104.075 64.2006 104.425 64.0718 104.868 64.0718H104.958C104.989 64.0718 105.022 64.0748 105.056 64.0799V63.2961C104.62 63.2961 104.252 63.3773 103.954 63.5405C103.708 63.6753 103.523 63.8619 103.395 64.0961Z" fill="white"/>
<path d="M110.384 63.3388H109.386L106.898 65.5664V61.5522H106.071V67.8041H106.898V66.5843L107.841 65.7215L109.557 67.8041H110.574L108.465 65.1851L110.384 63.3388Z" fill="white"/>
<path d="M113.216 67.8547C113.595 67.8547 113.938 67.7928 114.244 67.6691C114.551 67.5455 114.808 67.366 115.015 67.1297L114.558 66.6076C114.391 66.787 114.198 66.9219 113.977 67.0121C113.756 67.1024 113.511 67.147 113.241 67.147C112.913 67.147 112.623 67.0831 112.372 66.9533C112.119 66.8235 111.922 66.6431 111.782 66.4099C111.679 66.2375 111.613 66.0479 111.587 65.841H115.289C115.294 65.8015 115.3 65.7599 115.303 65.7143C115.306 65.6697 115.307 65.6302 115.307 65.5967C115.307 65.1364 115.211 64.7328 115.018 64.3881C114.825 64.0423 114.56 63.7747 114.221 63.583C113.883 63.3924 113.492 63.2971 113.051 63.2971C112.61 63.2971 112.224 63.3934 111.877 63.5881C111.53 63.7818 111.257 64.0505 111.059 64.3922C110.862 64.7349 110.762 65.1283 110.762 65.5713C110.762 66.0144 110.864 66.4088 111.068 66.7505C111.272 67.0932 111.559 67.3629 111.928 67.5596C112.298 67.7563 112.727 67.8547 113.215 67.8547H113.216ZM112.286 64.1681C112.509 64.0413 112.765 63.9785 113.052 63.9785C113.339 63.9785 113.601 64.0413 113.823 64.1681C114.043 64.2948 114.217 64.4702 114.344 64.6943C114.439 64.8646 114.497 65.0532 114.517 65.2591H111.585C111.609 65.0542 111.668 64.8677 111.762 64.6984C111.888 64.4712 112.063 64.2938 112.287 64.1681H112.286Z" fill="white"/>
<path d="M118.565 67.7787C118.74 67.728 118.891 67.6489 119.017 67.5425L118.759 66.9605C118.587 67.1014 118.372 67.1714 118.114 67.1714C117.884 67.1714 117.708 67.1065 117.584 66.9777C117.461 66.8479 117.399 66.6634 117.399 66.4221V64.0039H118.707V63.3388H117.399V62.3613H116.573V63.3388H115.798V64.0039H116.573V66.4555C116.573 66.9047 116.699 67.2505 116.952 67.4918C117.204 67.7331 117.56 67.8537 118.018 67.8537C118.208 67.8537 118.39 67.8284 118.565 67.7777V67.7787Z" fill="white"/>
<path d="M120.828 61.5735C120.722 61.4752 120.589 61.4265 120.429 61.4265C120.268 61.4265 120.134 61.4772 120.029 61.5776C119.923 61.678 119.869 61.8047 119.869 61.9568C119.869 62.1089 119.922 62.2265 120.029 62.3279C120.136 62.4293 120.268 62.479 120.429 62.479C120.589 62.479 120.73 62.4273 120.834 62.3228C120.937 62.2194 120.989 62.0906 120.989 61.9396C120.989 61.7885 120.936 61.6709 120.829 61.5725L120.828 61.5735Z" fill="white"/>
<path d="M120.842 63.3386H120.015V67.8039H120.842V63.3386Z" fill="white"/>
<path d="M125.838 63.507C125.554 63.3671 125.225 63.2961 124.852 63.2961C124.439 63.2961 124.078 63.3773 123.768 63.5405C123.537 63.6622 123.35 63.8203 123.209 64.014V63.3387H122.417V67.804H123.244V65.5034C123.244 65.178 123.303 64.9052 123.42 64.6862C123.538 64.4672 123.706 64.3009 123.923 64.1894C124.141 64.0769 124.397 64.0211 124.69 64.0211C125.08 64.0211 125.383 64.1306 125.598 64.3496C125.813 64.5686 125.921 64.8941 125.921 65.327V67.804H126.748V65.2337C126.748 64.7957 126.667 64.4327 126.506 64.1468C126.346 63.8609 126.123 63.647 125.839 63.507H125.838Z" fill="white"/>
<path d="M131.859 64.0241C131.689 63.8112 131.483 63.6459 131.24 63.5283C130.919 63.3742 130.562 63.2971 130.173 63.2971C129.731 63.2971 129.337 63.3874 128.989 63.5668C128.642 63.7463 128.367 63.9977 128.162 64.3212C127.958 64.6446 127.857 65.0218 127.857 65.4547C127.857 65.8877 127.958 66.2578 128.162 66.5843C128.367 66.9097 128.642 67.1642 128.989 67.3467C129.336 67.5292 129.731 67.6205 130.173 67.6205C130.563 67.6205 130.919 67.5404 131.24 67.3802C131.464 67.2686 131.655 67.1145 131.817 66.9249V67.2828C131.817 67.7878 131.69 68.165 131.437 68.4124C131.185 68.6597 130.789 68.7834 130.25 68.7834C129.911 68.7834 129.587 68.7307 129.277 68.6273C128.967 68.5239 128.706 68.3819 128.494 68.2015L128.098 68.825C128.345 69.0379 128.665 69.2022 129.058 69.3178C129.451 69.4334 129.857 69.4901 130.276 69.4901C131.051 69.4901 131.639 69.3046 132.041 68.9345C132.443 68.5644 132.644 67.9855 132.644 67.1987V63.3397H131.861V64.0251L131.859 64.0241ZM131.631 66.2121C131.497 66.4312 131.311 66.6025 131.076 66.7262C130.841 66.8499 130.571 66.9117 130.267 66.9117C129.964 66.9117 129.692 66.8499 129.454 66.7262C129.216 66.6025 129.029 66.4312 128.895 66.2121C128.76 65.9931 128.693 65.7397 128.693 65.4537C128.693 65.1678 128.76 64.9143 128.895 64.6953C129.029 64.4763 129.216 64.306 129.454 64.1853C129.692 64.0647 129.964 64.0038 130.267 64.0038C130.571 64.0038 130.841 64.0647 131.076 64.1853C131.311 64.306 131.497 64.4763 131.631 64.6953C131.766 64.9143 131.833 65.1678 131.833 65.4537C131.833 65.7397 131.766 65.9931 131.631 66.2121Z" fill="white"/>
<path d="M97.0085 71.8079C96.647 71.8079 96.3011 71.8566 95.9717 71.9549C95.6423 72.0533 95.3596 72.1952 95.1245 72.3808L95.4683 72.9871C95.6465 72.8411 95.864 72.7245 96.1229 72.6373C96.3808 72.5501 96.6449 72.5065 96.9142 72.5065C97.3213 72.5065 97.6268 72.6008 97.8309 72.7884C98.0349 72.9769 98.1364 73.2426 98.1364 73.5843V73.7445H96.8283C96.3746 73.7445 96.0152 73.8033 95.748 73.9219C95.4808 74.0395 95.2891 74.1967 95.1711 74.3934C95.053 74.5901 94.995 74.8091 94.995 75.0504C94.995 75.2917 95.0634 75.529 95.2011 75.7287C95.3389 75.9285 95.5357 76.0846 95.7904 76.1962C96.0452 76.3087 96.3425 76.3645 96.6812 76.3645C97.0996 76.3645 97.4476 76.2874 97.7231 76.1323C97.9168 76.0238 98.068 75.8859 98.1789 75.7227V76.3138H98.9619V73.6177C98.9619 73.0053 98.7931 72.5501 98.4544 72.253C98.1157 71.9559 97.6341 71.8069 97.0085 71.8069V71.8079ZM97.632 75.5401C97.4 75.675 97.1286 75.7419 96.8189 75.7419C96.5093 75.7419 96.2565 75.676 96.0784 75.5442C95.9002 75.4124 95.8112 75.237 95.8112 75.018C95.8112 74.8274 95.8826 74.6641 96.0266 74.5293C96.1695 74.3944 96.4481 74.3275 96.8614 74.3275H98.1354V74.9511C98.0318 75.2096 97.864 75.4063 97.632 75.5412V75.5401Z" fill="white"/>
<path d="M104.074 72.5348C103.904 72.3219 103.698 72.1567 103.455 72.039C103.134 71.8849 102.777 71.8079 102.388 71.8079C101.946 71.8079 101.552 71.8981 101.204 72.0776C100.857 72.257 100.582 72.5085 100.378 72.8319C100.174 73.1554 100.072 73.5325 100.072 73.9655C100.072 74.3984 100.174 74.7685 100.378 75.095C100.582 75.4205 100.856 75.675 101.204 75.8575C101.551 76.04 101.946 76.1312 102.388 76.1312C102.779 76.1312 103.134 76.0511 103.455 75.8909C103.68 75.7794 103.87 75.6253 104.032 75.4357V75.7936C104.032 76.2985 103.905 76.6757 103.653 76.9231C103.4 77.1705 103.004 77.2942 102.465 77.2942C102.126 77.2942 101.802 77.2415 101.492 77.138C101.182 77.0346 100.921 76.8927 100.709 76.7122L100.313 77.3358C100.56 77.5487 100.88 77.7129 101.273 77.8285C101.666 77.9441 102.072 78.0009 102.491 78.0009C103.265 78.0009 103.854 77.8154 104.254 77.4453C104.656 77.0752 104.857 76.4962 104.857 75.7094V71.8505H104.074V72.5359V72.5348ZM103.846 74.7229C103.712 74.9419 103.526 75.1132 103.291 75.2369C103.056 75.3606 102.786 75.4225 102.482 75.4225C102.179 75.4225 101.907 75.3606 101.669 75.2369C101.431 75.1132 101.245 74.9419 101.11 74.7229C100.975 74.5039 100.908 74.2504 100.908 73.9645C100.908 73.6785 100.975 73.4251 101.11 73.2061C101.245 72.9871 101.431 72.8167 101.669 72.6961C101.907 72.5754 102.179 72.5146 102.482 72.5146C102.786 72.5146 103.056 72.5754 103.291 72.6961C103.526 72.8167 103.712 72.9871 103.846 73.2061C103.981 73.4251 104.048 73.6785 104.048 73.9645C104.048 74.2504 103.981 74.5039 103.846 74.7229Z" fill="white"/>
<path d="M109.472 72.0938C109.133 71.9032 108.742 71.8079 108.301 71.8079C107.86 71.8079 107.474 71.9042 107.127 72.0989C106.78 72.2925 106.507 72.5612 106.309 72.9029C106.112 73.2456 106.012 73.639 106.012 74.0821C106.012 74.5252 106.114 74.9196 106.318 75.2613C106.522 75.604 106.809 75.8737 107.178 76.0704C107.548 76.2671 107.977 76.3654 108.465 76.3654C108.844 76.3654 109.187 76.3036 109.493 76.1799C109.8 76.0562 110.057 75.8767 110.264 75.6405L109.808 75.1183C109.641 75.2978 109.448 75.4326 109.227 75.5229C109.006 75.6131 108.761 75.6577 108.491 75.6577C108.163 75.6577 107.873 75.5939 107.622 75.4641C107.369 75.3343 107.172 75.1538 107.032 74.9206C106.929 74.7482 106.864 74.5586 106.837 74.3518H110.539C110.545 74.3123 110.549 74.2707 110.552 74.2251C110.555 74.1804 110.556 74.1409 110.556 74.1074C110.556 73.6471 110.46 73.2436 110.268 72.8988C110.075 72.5531 109.81 72.2854 109.472 72.0938ZM107.535 72.6798C107.758 72.5531 108.014 72.4902 108.301 72.4902C108.588 72.4902 108.851 72.5531 109.072 72.6798C109.292 72.8066 109.466 72.982 109.593 73.2061C109.688 73.3764 109.746 73.565 109.766 73.7708H106.835C106.858 73.566 106.917 73.3794 107.012 73.2101C107.138 72.983 107.313 72.8056 107.537 72.6798H107.535Z" fill="white"/>
<path d="M115.121 72.0178C114.838 71.8779 114.508 71.8069 114.135 71.8069C113.722 71.8069 113.361 71.888 113.051 72.0512C112.82 72.1729 112.634 72.3311 112.492 72.5247V71.8495H111.7V76.3148H112.527V74.0142C112.527 73.6887 112.586 73.416 112.703 73.197C112.82 72.978 112.989 72.8117 113.206 72.7001C113.424 72.5876 113.68 72.5318 113.973 72.5318C114.363 72.5318 114.666 72.6413 114.881 72.8603C115.097 73.0794 115.204 73.4048 115.204 73.8378V76.3148H116.031V73.7445C116.031 73.3065 115.95 72.9435 115.79 72.6576C115.629 72.3716 115.406 72.1577 115.123 72.0178H115.121Z" fill="white"/>
<path d="M118.741 72.7092C118.977 72.5795 119.244 72.5156 119.542 72.5156C119.789 72.5156 120.019 72.5683 120.235 72.6717C120.45 72.7751 120.633 72.9374 120.782 73.1564L121.41 72.7599C121.232 72.4456 120.982 72.2074 120.658 72.0482C120.333 71.888 119.965 71.8079 119.551 71.8079C119.086 71.8079 118.672 71.9042 118.307 72.0989C117.943 72.2925 117.658 72.5612 117.451 72.9029C117.245 73.2456 117.141 73.639 117.141 74.0821C117.141 74.5252 117.245 74.9196 117.451 75.2613C117.657 75.604 117.943 75.8737 118.307 76.0704C118.672 76.2671 119.086 76.3654 119.551 76.3654C119.965 76.3654 120.333 76.2823 120.658 76.117C120.982 75.9507 121.232 75.7135 121.41 75.4053L120.782 75.0179C120.633 75.2369 120.45 75.3982 120.235 75.5026C120.019 75.606 119.789 75.6587 119.542 75.6587C119.244 75.6587 118.977 75.5949 118.741 75.4651C118.506 75.3353 118.32 75.1528 118.182 74.9176C118.044 74.6823 117.976 74.4035 117.976 74.0831C117.976 73.7627 118.044 73.4859 118.182 73.2527C118.32 73.0195 118.506 72.839 118.741 72.7092Z" fill="white"/>
<path d="M124.068 75.4176L122.477 71.8496H121.617L123.63 76.3038L123.485 76.6181C123.37 76.8767 123.247 77.0561 123.115 77.1575C122.983 77.2589 122.817 77.3086 122.616 77.3086C122.461 77.3086 122.315 77.2802 122.177 77.2244C122.039 77.1687 121.913 77.0866 121.798 76.9801L121.445 77.5864C121.594 77.7213 121.772 77.8237 121.978 77.8936C122.184 77.9636 122.397 77.9991 122.615 77.9991C122.85 77.9991 123.066 77.9616 123.26 77.8855C123.455 77.8095 123.634 77.6817 123.798 77.5023C123.962 77.3228 124.109 77.0754 124.241 76.7611L126.454 71.8486H125.645L124.068 75.4166V75.4176Z" fill="white"/>
<path d="M12.5148 41.9064L0.616265 21.5479H0V46.3707H0.723982V23.1326L12.2797 42.8605H12.7147L24.2695 23.0728V46.3707H24.9945V21.5479H24.3782L12.5148 41.9064Z" fill="white"/>
<path d="M41.8025 21.5479L30.0655 46.3707H31.4057L34.8175 39.1009H49.9828L53.3945 46.3707H54.7348L42.9988 21.5479H41.8035H41.8025ZM35.3001 38.0728L42.4001 22.943L49.5001 38.0728H35.3001Z" fill="white"/>
<path d="M74.0047 37.2393C75.5262 36.565 76.6976 35.6079 77.5179 34.3668C78.3382 33.1258 78.7494 31.6424 78.7494 29.9167C78.7494 28.191 78.3382 26.6367 77.5179 25.3956C76.6965 24.1546 75.5251 23.2035 74.0047 22.5415C72.4831 21.8794 70.6592 21.5488 68.5349 21.5488H59.4432V46.3717H61.2909V38.2512H68.5359C69.4018 38.2512 70.2138 38.1924 70.9793 38.0808L77.0477 46.3717H79.1481L72.7908 37.6874C73.2144 37.5597 73.6194 37.4116 74.0036 37.2413L74.0047 37.2393ZM61.2899 36.6542V23.1792H68.5349C71.2641 23.1792 73.3345 23.7642 74.7473 24.9343C76.16 26.1044 76.8664 27.7652 76.8664 29.9167C76.8664 32.0683 76.16 33.6997 74.7473 34.8809C73.3345 36.0631 71.2641 36.6542 68.5349 36.6542H61.2899Z" fill="white"/>
<path d="M93.1047 34.6954L103.455 46.3707H106.642L94.9183 32.8014L105.882 21.5479H102.802L87.9146 36.5346V21.5479H85.2341V46.3707H87.9146V39.841L93.1047 34.6954Z" fill="white"/>
<path d="M129.065 43.2853H114.286V35.2713H127V32.2569H114.286V24.6332H128.557V21.5479H110.663V46.3707H129.065V43.2853Z" fill="white"/>
<path d="M131.274 25.4484H139.678V46.3707H144.387V25.4484H152.791V21.5479H131.274V25.4484Z" fill="white"/>
<path d="M161.811 21.5479H155.942V46.3707H161.811V21.5479Z" fill="white"/>
<path d="M184.45 34.7765L173.257 21.5479H167.353V46.3707H174.38V33.142L185.572 46.3707H191.477V21.5479H184.45V34.7765Z" fill="white"/>
<path d="M212.85 39.5773C212.752 39.6159 212.656 39.6534 212.56 39.6858C211.642 40.0052 210.7 40.1644 209.734 40.1644C208.769 40.1644 207.989 40.0164 207.253 39.7213C206.515 39.4263 205.881 39.0065 205.351 38.462C204.82 37.9186 204.41 37.2626 204.12 36.494C203.83 35.7265 203.685 34.8809 203.685 33.9582C203.685 32.9889 203.83 32.126 204.12 31.3696C204.41 30.6133 204.82 29.9633 205.351 29.4199C205.882 28.8764 206.529 28.4627 207.289 28.1788C208.05 27.8949 208.9 27.753 209.843 27.753C210.978 27.753 212.01 27.9831 212.94 28.4445C213.869 28.9058 214.733 29.5851 215.53 30.4835L221 25.7667C219.72 24.2306 218.096 23.0484 216.128 22.221C214.159 21.3937 211.92 20.98 209.408 20.98C207.308 20.98 205.381 21.2933 203.631 21.9199C201.879 22.5465 200.364 23.4387 199.085 24.5977C197.805 25.7566 196.814 27.1274 196.114 28.7111C195.413 30.2949 195.064 32.0449 195.064 33.9592C195.064 35.8735 195.414 37.6235 196.114 39.2073C196.814 40.791 197.798 42.1628 199.066 43.3207C200.334 44.4797 201.832 45.3719 203.558 45.9985C205.285 46.6241 207.174 46.9384 209.227 46.9384C211.086 46.9384 213.006 46.6657 214.986 46.1232C216.967 45.5798 218.73 44.8 220.275 43.7831V33.287H212.849V39.5784L212.85 39.5773Z" fill="white"/>
</g>
<defs>
<clipPath id="clip0_1_64">
<rect width="221" height="78" fill="white"/>
</clipPath>
</defs>
</svg>
